<svg width="785" height="186" viewBox="0 0 785 186" fill="none" xmlns="http://www.w3.org/2000/svg">
<path d="M0 60C0 26.8629 26.8629 0 60 0H725C758.137 0 785 26.8629 785 60V126C785 159.137 758.137 186 725 186H60C26.8629 186 0 159.137 0 126V60Z" fill="white"/>
<path d="M109.174 122.284C102.774 126.951 94.7073 129.284 84.974 129.284C74.174 129.284 65.4073 126.184 58.674 119.984C51.9406 113.784 48.574 105.351 48.574 94.6839C48.574 84.1506 52.074 75.7172 59.074 69.3839C66.1406 63.0505 75.074 59.8839 85.874 59.8839C93.474 59.8839 100.041 61.2839 105.574 64.0839V79.4839C99.174 75.8172 92.6073 73.9839 85.874 73.9839C79.5406 73.9839 74.5073 75.8839 70.774 79.6839C67.0406 83.4172 65.174 88.4172 65.174 94.6839C65.174 101.017 67.0073 106.051 70.674 109.784C74.3406 113.517 79.3406 115.384 85.674 115.384C88.5406 115.384 91.374 114.951 94.174 114.084V101.384H83.274V88.2839H109.174V122.284ZM162.979 125.584C159.513 127.851 154.213 128.984 147.079 128.984C138.746 128.984 132.246 126.584 127.579 121.784C122.979 116.917 120.679 110.684 120.679 103.084C120.679 95.0172 122.913 88.7172 127.379 84.1839C131.913 79.5839 137.479 77.2839 144.079 77.2839C150.879 77.2839 156.246 79.2839 160.179 83.2839C164.113 87.2172 166.079 93.1172 166.079 100.984C166.079 102.517 165.813 105.151 165.279 108.884H135.479C136.479 111.684 138.213 113.851 140.679 115.384C143.146 116.917 146.113 117.684 149.579 117.684C154.713 117.684 159.179 116.251 162.979 113.384V125.584ZM144.679 88.3839C142.346 88.3839 140.279 89.2506 138.479 90.9839C136.679 92.6506 135.479 95.1506 134.879 98.4839H152.479V97.2839C152.013 91.3506 149.413 88.3839 144.679 88.3839ZM208.1 127.384C205.633 128.451 202.3 128.984 198.1 128.984C186.566 128.984 180.8 123.217 180.8 111.684V88.4839H173.5V77.7839H180.8V65.7839H195.4V77.7839H207.2V88.4839H195.4V111.784C195.4 113.584 195.9 114.951 196.9 115.884C197.966 116.817 199.333 117.284 201 117.284C203.666 117.284 206.033 116.617 208.1 115.284V127.384ZM288.474 108.884C288.474 114.951 286.241 119.884 281.774 123.684C277.307 127.417 271.374 129.284 263.974 129.284C256.041 129.284 249.574 127.884 244.574 125.084V109.584C250.641 113.984 257.107 116.184 263.974 116.184C266.307 116.184 268.241 115.584 269.774 114.384C271.307 113.117 272.074 111.484 272.074 109.484C272.074 108.817 271.974 108.184 271.774 107.584C271.574 106.984 271.207 106.417 270.674 105.884C270.141 105.351 269.607 104.917 269.074 104.584C268.607 104.184 267.874 103.751 266.874 103.284C265.941 102.751 265.141 102.317 264.474 101.984C263.807 101.651 262.807 101.184 261.474 100.584C260.207 99.9839 259.174 99.5172 258.374 99.1839C254.041 97.1839 250.541 94.7172 247.874 91.7839C245.274 88.8506 243.974 84.9506 243.974 80.0839C243.974 74.2839 246.107 69.6172 250.374 66.0839C254.641 62.4839 260.541 60.6839 268.074 60.6839C274.807 60.6839 280.607 61.8172 285.474 64.0839V78.4839C280.074 75.3506 274.474 73.7839 268.674 73.7839C266.074 73.7839 264.074 74.3172 262.674 75.3839C261.341 76.4505 260.674 77.8172 260.674 79.4839C260.674 81.1506 261.507 82.6506 263.174 83.9839C264.841 85.2506 267.341 86.6172 270.674 88.0839C272.741 89.0172 274.441 89.8506 275.774 90.5839C277.174 91.2506 278.741 92.2172 280.474 93.4839C282.274 94.6839 283.674 95.9839 284.674 97.3839C285.741 98.7172 286.641 100.384 287.374 102.384C288.107 104.384 288.474 106.551 288.474 108.884ZM329.041 127.384C326.574 128.451 323.241 128.984 319.041 128.984C307.508 128.984 301.741 123.217 301.741 111.684V88.4839H294.441V77.7839H301.741V65.7839H316.341V77.7839H328.141V88.4839H316.341V111.784C316.341 113.584 316.841 114.951 317.841 115.884C318.908 116.817 320.274 117.284 321.941 117.284C324.608 117.284 326.974 116.617 329.041 115.284V127.384ZM358.615 118.484C360.682 118.484 362.282 117.851 363.415 116.584C364.549 115.317 365.115 113.584 365.115 111.384V107.684H360.415C357.949 107.684 356.049 108.217 354.715 109.284C353.382 110.351 352.715 111.717 352.715 113.384C352.715 116.784 354.682 118.484 358.615 118.484ZM365.815 122.284C363.682 126.617 359.482 128.784 353.215 128.784C348.282 128.784 344.415 127.384 341.615 124.584C338.882 121.784 337.515 118.284 337.515 114.084C337.515 109.217 339.282 105.451 342.815 102.784C346.415 100.051 351.715 98.6839 358.715 98.6839H365.115V95.1839C365.115 90.9172 362.282 88.7839 356.615 88.7839C351.149 88.7839 346.082 90.3172 341.415 93.3839V80.2839C345.415 78.0172 351.182 76.8839 358.715 76.8839C365.915 76.8839 371.282 78.4506 374.815 81.5839C378.349 84.6506 380.115 89.4506 380.115 95.9839V128.484H365.815V122.284ZM408.078 128.484H393.478L393.578 77.7839H408.078V87.1839C409.011 84.2506 410.545 81.9172 412.678 80.1839C414.878 78.3839 417.411 77.4839 420.278 77.4839C421.878 77.4839 423.145 77.6172 424.078 77.8839V91.6839C422.478 90.9506 420.645 90.5839 418.578 90.5839C415.445 90.5839 412.911 91.7506 410.978 94.0839C409.045 96.3506 408.078 99.3839 408.078 103.184V128.484ZM462.19 127.384C459.723 128.451 456.39 128.984 452.19 128.984C440.656 128.984 434.89 123.217 434.89 111.684V88.4839H427.59V77.7839H434.89V65.7839H449.49V77.7839H461.29V88.4839H449.49V111.784C449.49 113.584 449.99 114.951 450.99 115.884C452.056 116.817 453.423 117.284 455.09 117.284C457.756 117.284 460.123 116.617 462.19 115.284V127.384ZM512.964 125.584C509.497 127.851 504.197 128.984 497.064 128.984C488.73 128.984 482.23 126.584 477.564 121.784C472.964 116.917 470.664 110.684 470.664 103.084C470.664 95.0172 472.897 88.7172 477.364 84.1839C481.897 79.5839 487.464 77.2839 494.064 77.2839C500.864 77.2839 506.23 79.2839 510.164 83.2839C514.097 87.2172 516.064 93.1172 516.064 100.984C516.064 102.517 515.797 105.151 515.264 108.884H485.464C486.464 111.684 488.197 113.851 490.664 115.384C493.13 116.917 496.097 117.684 499.564 117.684C504.697 117.684 509.164 116.251 512.964 113.384V125.584ZM494.664 88.3839C492.33 88.3839 490.264 89.2506 488.464 90.9839C486.664 92.6506 485.464 95.1506 484.864 98.4839H502.464V97.2839C501.997 91.3506 499.397 88.3839 494.664 88.3839ZM540.784 103.284C540.784 107.351 541.851 110.651 543.984 113.184C546.117 115.651 548.717 116.884 551.784 116.884C555.117 116.884 557.817 115.584 559.884 112.984C561.951 110.384 562.984 106.917 562.984 102.584C562.984 98.3839 561.851 95.1172 559.584 92.7839C557.384 90.4506 554.751 89.2839 551.684 89.2839C548.617 89.2839 546.017 90.5172 543.884 92.9839C541.817 95.4506 540.784 98.8839 540.784 103.284ZM577.584 128.484H562.984V120.584C559.584 126.251 554.517 129.084 547.784 129.084C541.184 129.084 535.884 126.517 531.884 121.384C527.951 116.251 525.984 110.117 525.984 102.984C525.984 94.9839 528.051 88.6839 532.184 84.0839C536.317 79.4839 541.551 77.1839 547.884 77.1839C554.484 77.1839 559.517 79.9839 562.984 85.5839V57.7839H577.584V128.484Z" fill="black" fill-opacity="0.89"/>
<path d="M730.688 99.3156L738.895 68.0343C739.487 65.7757 737.505 63.625 734.832 63.625H666.64L665.049 56.886C664.652 55.2063 662.946 54 660.967 54H643.167C640.865 54 639 55.6159 639 57.6094V60.0156C639 62.0091 640.865 63.625 643.167 63.625H655.299L667.495 115.274C664.577 116.728 662.611 119.453 662.611 122.578C662.611 127.229 666.964 131 672.333 131C677.703 131 682.056 127.229 682.056 122.578C682.056 120.221 680.936 118.091 679.135 116.562H715.532C713.73 118.091 712.611 120.221 712.611 122.578C712.611 127.229 716.964 131 722.333 131C727.703 131 732.056 127.229 732.056 122.578C732.056 119.244 729.818 116.362 726.573 114.998L727.531 111.347C728.123 109.088 726.142 106.938 723.468 106.938H676.868L675.731 102.125H726.625C728.57 102.125 730.256 100.959 730.688 99.3156Z" fill="#00FFFF"/>
</svg>
